<?xml version="1.0" standalone="no"?>
<!DOCTYPE svg PUBLIC "-//W3C//DTD SVG 20010904//EN"
 "http://www.w3.org/TR/2001/REC-SVG-20010904/DTD/svg10.dtd">
<svg version="1.0" xmlns="http://www.w3.org/2000/svg"
 width="352.000000pt" height="352.000000pt" viewBox="0 0 352.000000 352.000000"
 preserveAspectRatio="xMidYMid meet">
<metadata>
Created by potrace 1.11, written by Peter Selinger 2001-2013
</metadata>
<g transform="translate(0.000000,352.000000) scale(0.100000,-0.100000)"
fill="#000000" stroke="none">
<path d="M2090 3290 c-107 -44 -202 -83 -210 -88 -10 -6 -25 -3 -45 10 -16 10
-33 18 -37 18 -4 0 12 -37 36 -82 94 -182 150 -285 172 -318 13 -19 24 -38 24
-43 0 -4 9 -20 19 -35 10 -15 54 -83 96 -152 85 -138 312 -479 347 -523 l23
-28 1 48 c2 74 15 382 19 433 2 25 6 124 10 220 4 96 9 200 10 230 12 192 2
254 -48 315 -40 49 -98 75 -167 74 -45 0 -90 -14 -250 -79z"/>
<path d="M1346 2984 c-85 -37 -85 -37 -178 1 -13 5 -10 -8 15 -57 17 -35 35
-64 39 -66 5 -2 8 -11 8 -21 0 -9 4 -21 9 -26 5 -6 33 -57 63 -115 70 -132
115 -215 145 -262 13 -21 23 -39 23 -42 0 -10 223 -368 325 -521 186 -279 255
-375 271 -375 8 0 28 7 44 15 17 9 30 13 30 9 0 -4 6 -2 13 3 6 5 38 20 70 33
31 12 57 26 57 30 0 4 12 12 26 19 25 11 25 13 10 34 -17 23 -273 408 -311
467 -28 43 -146 230 -162 256 -6 10 -74 118 -150 239 -76 121 -145 232 -153
246 -37 64 -105 169 -110 168 -3 0 -41 -16 -84 -35z"/>
<path d="M2727 2920 c-20 -4 -40 -10 -44 -14 -4 -3 -8 -35 -9 -69 -1 -56 -5
-142 -19 -442 -3 -55 -7 -161 -10 -235 -6 -158 -15 -302 -20 -310 -3 -4 25
-44 152 -213 19 -26 37 -46 40 -44 4 5 7 52 18 322 3 83 8 177 10 210 2 33 7
137 10 230 4 94 8 186 10 205 2 19 5 87 6 150 2 92 -1 121 -14 147 -23 44 -80
72 -130 63z"/>
<path d="M788 2703 c-49 -52 -94 -137 -107 -203 -6 -30 -13 -107 -16 -170 -3
-63 -7 -162 -10 -220 -3 -58 -8 -161 -11 -230 -2 -69 -6 -159 -8 -200 -27
-527 -27 -528 43 -600 74 -76 164 -84 303 -25 l87 37 -43 67 c-24 37 -62 101
-85 144 -24 42 -46 79 -49 81 -4 2 -33 -11 -66 -30 l-58 -35 6 93 c4 51 9 111
11 133 3 22 7 69 9 105 5 64 16 185 21 225 1 11 3 28 4 37 1 21 -13 28 271
-139 284 -168 258 -151 235 -159 -11 -4 -37 -18 -57 -31 l-38 -23 52 -88 c69
-117 149 -232 162 -232 6 0 23 6 38 14 14 8 43 19 65 26 21 7 54 21 73 31 19
11 41 19 48 19 20 0 12 16 -66 132 -152 227 -558 886 -635 1029 -40 75 -138
249 -141 249 -1 0 -18 -17 -38 -37z"/>
<path d="M2267 1435 l-118 -52 79 -94 c111 -132 101 -127 175 -96 74 31 120
50 127 51 3 1 14 6 24 13 18 10 17 13 -17 49 -19 22 -46 53 -58 69 -13 17 -26
32 -29 35 -3 3 -16 22 -30 42 -14 21 -27 37 -30 37 -3 -1 -58 -25 -123 -54z"/>
<path d="M1642 1175 c-57 -24 -106 -45 -108 -48 -6 -5 69 -82 146 -149 l65
-56 94 38 c51 21 95 41 97 43 3 3 -7 18 -23 34 -53 56 -83 93 -83 103 0 5 -3
10 -7 10 -5 0 -19 16 -32 35 -13 19 -29 35 -35 34 -6 0 -58 -20 -114 -44z"/>
<path d="M1128 959 c-14 -8 -18 -24 -18 -77 0 -106 38 -153 123 -153 48 -1 65
3 90 17 15 9 9 18 -51 80 -37 38 -81 86 -98 106 -24 31 -32 36 -46 27z"/>
<path d="M2039 703 c-1 -5 -2 -106 -3 -225 l-1 -218 38 0 37 0 0 54 c0 37 5
58 16 67 10 8 18 9 22 3 4 -6 24 -36 45 -67 36 -53 42 -57 78 -57 21 0 39 2
39 5 0 3 -27 43 -60 89 -33 47 -60 88 -60 93 0 4 19 28 43 54 76 82 75 79 29
79 -44 0 -58 -10 -120 -86 -37 -45 -35 -53 -33 114 l1 102 -35 0 c-19 0 -36
-3 -36 -7z"/>
<path d="M985 478 l0 -213 37 -3 37 -3 -4 163 -4 163 62 -162 c60 -156 63
-163 90 -163 18 0 30 6 33 18 3 9 10 25 15 34 5 10 9 23 9 29 0 6 6 25 14 42
8 18 28 69 46 115 18 45 34 82 37 82 2 0 2 -8 -1 -17 -4 -15 -10 -242 -7 -290
1 -8 15 -13 36 -13 l35 0 0 215 0 215 -47 0 -48 0 -60 -160 c-32 -88 -62 -156
-66 -152 -5 6 -100 253 -114 300 -3 7 -23 12 -53 12 l-48 0 1 -212z"/>
<path d="M2689 656 c-1 -3 -2 -21 -3 -38 -1 -28 -5 -33 -27 -36 -21 -2 -26 -8
-27 -33 -1 -25 3 -29 27 -29 l27 0 -1 -93 c-1 -117 8 -155 41 -167 38 -15 81
-12 88 5 8 23 -4 45 -25 45 -28 0 -36 27 -35 120 1 85 1 85 29 88 23 3 27 8
27 33 0 25 -4 29 -28 29 -27 0 -29 3 -28 38 1 35 -1 37 -31 40 -18 2 -34 1
-34 -2z"/>
<path d="M648 573 c-3 -4 -4 -66 -3 -138 l3 -129 32 -29 c26 -23 40 -28 73
-26 23 2 52 9 65 17 14 9 22 10 22 3 0 -6 16 -11 35 -11 l36 0 -2 161 -2 160
-36 -3 -36 -3 0 -115 c0 -63 -4 -120 -8 -127 -4 -7 -24 -15 -43 -19 -59 -11
-67 6 -68 143 l-1 118 -32 3 c-17 2 -33 -1 -35 -5z"/>
<path d="M1562 563 c-32 -16 -67 -64 -55 -77 14 -13 61 -5 78 14 34 38 90 22
100 -29 3 -19 -1 -21 -38 -22 -23 0 -51 -2 -62 -4 -83 -16 -115 -105 -59 -166
25 -27 78 -34 125 -16 21 8 39 11 39 6 0 -5 18 -9 41 -9 27 0 38 4 33 11 -4 6
-8 61 -9 123 -1 63 -7 121 -14 133 -26 50 -115 68 -179 36z m123 -194 c-6 -70
-115 -83 -115 -14 0 26 31 43 81 44 35 1 36 -1 34 -30z"/>
<path d="M1829 578 c-1 -2 -2 -74 -3 -160 l-1 -158 36 0 37 0 0 103 c0 56 0
107 1 114 2 21 32 43 61 43 28 0 42 20 33 48 -6 17 -45 15 -69 -3 -24 -18 -35
-19 -31 -2 1 7 -11 13 -30 15 -18 2 -33 2 -34 0z"/>
<path d="M2433 573 c-82 -17 -126 -172 -73 -258 36 -59 140 -83 200 -46 47 29
51 37 30 56 -17 16 -21 16 -42 1 -47 -33 -138 -4 -138 44 0 18 10 20 102 22
l103 3 -4 45 c-7 103 -76 154 -178 133z m87 -73 c11 -11 20 -29 20 -40 0 -18
-7 -20 -65 -20 -72 0 -80 9 -44 54 25 31 61 34 89 6z"/>
</g>
</svg>
